<svg width="31" height="31" viewBox="0 0 31 31" fill="none" xmlns="http://www.w3.org/2000/svg">
<path d="M19.25 28V23C19.4239 21.4341 18.9749 19.8627 18 18.625C21.75 18.625 25.5 16.125 25.5 11.75C25.6 10.1875 25.1625 8.65 24.25 7.375C24.6 5.9375 24.6 4.4375 24.25 3C24.25 3 23 3 20.5 4.875C17.2 4.25 13.8 4.25 10.5 4.875C7.99999 3 6.74999 3 6.74999 3C6.37499 4.4375 6.37499 5.9375 6.74999 7.375C5.83983 8.64485 5.39808 10.191 5.49999 11.75C5.49999 16.125 9.24999 18.625 13 18.625C12.5125 19.2375 12.15 19.9375 11.9375 20.6875C11.725 21.4375 11.6625 22.225 11.75 23V28" stroke="white" stroke-width="2" stroke-linecap="round" stroke-linejoin="round"/>
<path d="M11.75 23C6.1125 25.5 5.5 20.5 3 20.5" stroke="white" stroke-width="2" stroke-linecap="round" stroke-linejoin="round"/>
</svg>
