<svg xmlns="http://www.w3.org/2000/svg" xmlns:xlink="http://www.w3.org/1999/xlink" width="500" zoomAndPan="magnify" viewBox="0 0 375 374.999991" height="500" preserveAspectRatio="xMidYMid meet" version="1.2"><defs><clipPath id="2349905c93"><path d="M 95.316406 181.347656 L 113.316406 181.347656 L 113.316406 268.347656 L 95.316406 268.347656 Z M 95.316406 181.347656 "/></clipPath><clipPath id="b60c8219c0"><path d="M 113.644531 122.421875 L 131.644531 122.421875 L 131.644531 209.421875 L 113.644531 209.421875 Z M 113.644531 122.421875 "/></clipPath><clipPath id="3e4df12f37"><path d="M 97.351562 67.101562 L 115.351562 67.101562 L 115.351562 154.101562 L 97.351562 154.101562 Z M 97.351562 67.101562 "/></clipPath><clipPath id="9a40bb9c68"><path d="M 269.402344 144 L 287.402344 144 L 287.402344 230.988281 L 269.402344 230.988281 Z M 269.402344 144 "/></clipPath><clipPath id="eca51781c9"><path d="M 242.773438 197.128906 L 260.773438 197.128906 L 260.773438 284.128906 L 242.773438 284.128906 Z M 242.773438 197.128906 "/></clipPath><clipPath id="1328b446fe"><path d="M 144.355469 280.785156 L 231.355469 280.785156 L 231.355469 298.785156 L 144.355469 298.785156 Z M 144.355469 280.785156 "/></clipPath><clipPath id="ac0a1ff196"><path d="M 156 156 L 232 156 L 232 231 L 156 231 Z M 156 156 "/></clipPath><clipPath id="8ba107faa2"><path d="M 156.8125 218.03125 L 218.328125 156.515625 L 231.058594 169.242188 L 169.539062 230.761719 Z M 156.8125 218.03125 "/></clipPath><clipPath id="eef382178a"><path d="M 156.8125 218.03125 L 218.328125 156.515625 L 231.058594 169.242188 L 169.539062 230.761719 Z M 156.8125 218.03125 "/></clipPath><clipPath id="7a271a7c03"><path d="M 156.8125 218.03125 L 218.328125 156.515625 L 231.058594 169.242188 L 169.539062 230.761719 Z M 156.8125 218.03125 "/></clipPath><clipPath id="d1da4077ea"><path d="M 163 119 L 238 119 L 238 194 L 163 194 Z M 163 119 "/></clipPath><clipPath id="1b62148a43"><path d="M 163.503906 180.878906 L 225.019531 119.363281 L 237.75 132.089844 L 176.230469 193.609375 Z M 163.503906 180.878906 "/></clipPath><clipPath id="5fb5a83ca2"><path d="M 163.503906 180.878906 L 225.019531 119.363281 L 237.75 132.089844 L 176.230469 193.609375 Z M 163.503906 180.878906 "/></clipPath><clipPath id="3f31eec80f"><path d="M 163.503906 180.878906 L 225.019531 119.363281 L 237.75 132.089844 L 176.230469 193.609375 Z M 163.503906 180.878906 "/></clipPath><clipPath id="17c8ba09cf"><path d="M 131 114 L 228 114 L 228 232 L 131 232 Z M 131 114 "/></clipPath><clipPath id="e0975de053"><path d="M 117.304688 214.015625 L 222.585938 112.496094 L 241.324219 131.933594 L 136.046875 233.449219 Z M 117.304688 214.015625 "/></clipPath><clipPath id="9217b416dd"><path d="M 117.304688 214.015625 L 222.585938 112.496094 L 241.324219 131.933594 L 136.046875 233.449219 Z M 117.304688 214.015625 "/></clipPath><clipPath id="58149649ff"><path d="M 165 119 L 262 119 L 262 237 L 165 237 Z M 165 119 "/></clipPath><clipPath id="38da951e6b"><path d="M 151.894531 219.550781 L 257.171875 118.035156 L 275.914062 137.46875 L 170.636719 238.988281 Z M 151.894531 219.550781 "/></clipPath><clipPath id="831927044f"><path d="M 275.886719 137.121094 L 170.609375 238.636719 L 151.867188 219.203125 L 257.144531 117.683594 Z M 275.886719 137.121094 "/></clipPath></defs><g id="5f2eebef5c"><path style="fill:none;stroke-width:5;stroke-linecap:butt;stroke-linejoin:miter;stroke:#000000;stroke-opacity:1;stroke-miterlimit:4;" d="M 0.00196598 2.502123 L 217.210322 2.502123 " transform="matrix(0,0.749299,-0.749299,0,97.183431,80.064933)"/><path style="fill:none;stroke-width:5;stroke-linecap:butt;stroke-linejoin:miter;stroke:#000000;stroke-opacity:1;stroke-miterlimit:4;" d="M -0.00219033 2.500812 L 217.211379 2.500812 " transform="matrix(0,0.749299,-0.749299,0,115.510574,117.880547)"/><path style="fill:none;stroke-width:5;stroke-linecap:butt;stroke-linejoin:miter;stroke:#000000;stroke-opacity:1;stroke-miterlimit:4;" d="M -0.00107974 2.499501 L 217.212489 2.499501 " transform="matrix(0,0.749299,-0.749299,0,133.837717,46.524247)"/><path style="fill:none;stroke-width:5;stroke-linecap:butt;stroke-linejoin:miter;stroke:#000000;stroke-opacity:1;stroke-miterlimit:4;" d="M 0.0015163 2.501005 L 188.273877 2.497926 " transform="matrix(-0.51605,0.542777,-0.542777,-0.51605,232.467644,127.809352)"/><path style="fill:none;stroke-width:5;stroke-linecap:butt;stroke-linejoin:miter;stroke:#000000;stroke-opacity:1;stroke-miterlimit:4;" d="M 0.000200592 2.4981 L 188.272375 2.502395 " transform="matrix(-0.51605,0.542777,-0.542777,-0.51605,262.148982,126.406223)"/><path style="fill:none;stroke-width:5;stroke-linecap:butt;stroke-linejoin:miter;stroke:#000000;stroke-opacity:1;stroke-miterlimit:4;" d="M 0.000828035 2.497506 L 188.271682 2.497506 " transform="matrix(0,0.748942,-0.748942,0,252.788455,156.847036)"/><path style="fill:none;stroke-width:5;stroke-linecap:butt;stroke-linejoin:miter;stroke:#000000;stroke-opacity:1;stroke-miterlimit:4;" d="M -0.00226471 2.498091 L 188.273805 2.498091 " transform="matrix(0,0.748942,-0.748942,0,280.433424,125.114977)"/><path style="fill:none;stroke-width:5;stroke-linecap:butt;stroke-linejoin:miter;stroke:#000000;stroke-opacity:1;stroke-miterlimit:4;" d="M -0.00195793 2.500521 L 119.175144 2.500521 " transform="matrix(-0.748918,0,0,-0.748918,231.111815,298.782842)"/><path style="fill:none;stroke-width:5;stroke-linecap:butt;stroke-linejoin:miter;stroke:#000000;stroke-opacity:1;stroke-miterlimit:4;" d="M -0.00252238 2.500608 L 159.211041 2.500608 " transform="matrix(-0.749043,-0.00000000130733,0.00000000130733,-0.749043,206.677798,328.478532)"/><g clip-rule="nonzero" clip-path="url(#2349905c93)"><path style=" stroke:none;fill-rule:nonzero;fill:#000000;fill-opacity:1;" d="M 95.316406 268.328125 L 95.316406 181.367188 L 113.316406 181.367188 L 113.316406 268.328125 Z M 95.316406 268.328125 "/></g><g clip-rule="nonzero" clip-path="url(#b60c8219c0)"><path style=" stroke:none;fill-rule:nonzero;fill:#000000;fill-opacity:1;" d="M 113.644531 209.40625 L 113.644531 122.441406 L 131.644531 122.441406 L 131.644531 209.40625 Z M 113.644531 209.40625 "/></g><g clip-rule="nonzero" clip-path="url(#3e4df12f37)"><path style=" stroke:none;fill-rule:nonzero;fill:#000000;fill-opacity:1;" d="M 97.351562 154.082031 L 97.351562 67.117188 L 115.351562 67.117188 L 115.351562 154.082031 Z M 97.351562 154.082031 "/></g><g clip-rule="nonzero" clip-path="url(#9a40bb9c68)"><path style=" stroke:none;fill-rule:nonzero;fill:#000000;fill-opacity:1;" d="M 269.402344 230.96875 L 269.402344 144.007812 L 287.402344 144.007812 L 287.402344 230.96875 Z M 269.402344 230.96875 "/></g><g clip-rule="nonzero" clip-path="url(#eca51781c9)"><path style=" stroke:none;fill-rule:nonzero;fill:#000000;fill-opacity:1;" d="M 242.773438 284.109375 L 242.773438 197.148438 L 260.773438 197.148438 L 260.773438 284.109375 Z M 242.773438 284.109375 "/></g><g clip-rule="nonzero" clip-path="url(#1328b446fe)"><path style=" stroke:none;fill-rule:nonzero;fill:#000000;fill-opacity:1;" d="M 144.375 280.785156 L 231.339844 280.785156 L 231.339844 298.785156 L 144.375 298.785156 Z M 144.375 280.785156 "/></g><g clip-rule="nonzero" clip-path="url(#ac0a1ff196)"><g clip-rule="nonzero" clip-path="url(#8ba107faa2)"><g clip-rule="nonzero" clip-path="url(#eef382178a)"><g clip-rule="nonzero" clip-path="url(#7a271a7c03)"><path style=" stroke:none;fill-rule:nonzero;fill:#000000;fill-opacity:1;" d="M 156.824219 218.019531 L 218.316406 156.527344 L 231.042969 169.253906 L 169.554688 230.746094 Z M 156.824219 218.019531 "/></g></g></g></g><g clip-rule="nonzero" clip-path="url(#d1da4077ea)"><g clip-rule="nonzero" clip-path="url(#1b62148a43)"><g clip-rule="nonzero" clip-path="url(#5fb5a83ca2)"><g clip-rule="nonzero" clip-path="url(#3f31eec80f)"><path style=" stroke:none;fill-rule:nonzero;fill:#000000;fill-opacity:1;" d="M 163.515625 180.867188 L 225.007812 119.375 L 237.734375 132.101562 L 176.242188 193.59375 Z M 163.515625 180.867188 "/></g></g></g></g><g clip-rule="nonzero" clip-path="url(#17c8ba09cf)"><g clip-rule="nonzero" clip-path="url(#e0975de053)"><g clip-rule="nonzero" clip-path="url(#9217b416dd)"><path style=" stroke:none;fill-rule:nonzero;fill:#004aad;fill-opacity:1;" d="M 226.253906 116.410156 C 224.203125 114.285156 220.796875 114.222656 218.671875 116.269531 C 216.761719 118.109375 216.496094 121.046875 217.949219 123.160156 L 166.816406 172.464844 L 166.433594 195.851562 L 138.71875 222.574219 C 136.910156 221.304688 134.351562 221.429688 132.703125 223.019531 C 130.796875 224.859375 130.742188 227.839844 132.582031 229.75 C 134.421875 231.65625 137.402344 231.710938 139.3125 229.871094 C 140.960938 228.28125 141.175781 225.730469 139.976562 223.875 L 168.207031 196.652344 L 168.632812 173.308594 L 219.203125 124.546875 C 221.261719 126.074219 224.203125 125.917969 226.113281 124.074219 C 228.28125 121.984375 228.34375 118.578125 226.253906 116.410156 Z M 224.859375 122.773438 C 223.425781 124.15625 221.171875 124.070312 219.832031 122.683594 C 218.492188 121.296875 218.535156 118.996094 219.921875 117.65625 C 221.355469 116.277344 223.613281 116.359375 224.949219 117.75 C 226.289062 119.136719 226.289062 121.394531 224.859375 122.773438 Z M 224.859375 122.773438 "/></g></g></g><g clip-rule="nonzero" clip-path="url(#58149649ff)"><g clip-rule="nonzero" clip-path="url(#38da951e6b)"><g clip-rule="nonzero" clip-path="url(#831927044f)"><path style=" stroke:none;fill-rule:nonzero;fill:#004aad;fill-opacity:1;" d="M 166.941406 234.726562 C 168.988281 236.851562 172.394531 236.914062 174.523438 234.863281 C 176.429688 233.023438 176.695312 230.089844 175.242188 227.976562 L 226.375 178.667969 L 226.757812 155.285156 L 254.472656 128.5625 C 256.28125 129.828125 258.839844 129.707031 260.488281 128.117188 C 262.394531 126.277344 262.449219 123.292969 260.609375 121.386719 C 258.769531 119.476562 255.789062 119.425781 253.878906 121.265625 C 252.230469 122.851562 252.015625 125.40625 253.21875 127.257812 L 224.984375 154.484375 L 224.558594 177.828125 L 173.992188 226.589844 C 171.929688 225.058594 168.988281 225.21875 167.078125 227.058594 C 164.910156 229.148438 164.847656 232.558594 166.941406 234.726562 Z M 168.332031 228.359375 C 169.765625 226.980469 172.023438 227.0625 173.359375 228.453125 C 174.699219 229.839844 174.65625 232.140625 173.269531 233.476562 C 171.835938 234.859375 169.582031 234.773438 168.242188 233.386719 C 166.902344 232 166.902344 229.742188 168.332031 228.359375 Z M 168.332031 228.359375 "/></g></g></g></g></svg>